# xmcd
#
# Track frame offsets: 
#        150
#        15600
#        32262
#        47462
#        67512
#        80462
#        94075
#        106975
#        125962
#        142637
#        158875
#        173575
#        182600
#        197425
#        210025
#        223125
#
# Disc length: 3185 seconds
#
# Revision: 2
# Processed by: cddbd v1.5.2PL0 Copyright (c) Steve Scherf et al.
# Submitted via: ExactAudioCopy v0.99pb5
#
DISCID=bd0c6f10
DTITLE=Keith Whitley - RCA Country Legends
DYEAR=2002
DGENRE=Country
TTITLE0=Some Old Side Road
TTITLE1=A Day in the Life of a Fool
TTITLE2=Ten Feet Away
TTITLE3=I Never Go Around Mirrors
TTITLE4=The Birmingham Turnaround
TTITLE5=Homecoming '63
TTITLE6=Hard Livin'
TTITLE7=Don't Close Your Eyes
TTITLE8=When You Say Nothing At All
TTITLE9=I'm no Stranger to the Rain
TTITLE10=I Wonder Do You Think Of Me
TTITLE11=Lucky Dog
TTITLE12=Brotherly Love (duet with Earl Thomas Conley)
TTITLE13=Pick Me Up On Your Way Down
TTITLE14=Quittin' Time
TTITLE15='Til a Tear Becomes a Rose (duet with Lorrie Morgan)
EXTD=
EXTT0=
EXTT1=
EXTT2=
EXTT3=
EXTT4=
EXTT5=
EXTT6=
EXTT7=
EXTT8=
EXTT9=
EXTT10=
EXTT11=
EXTT12=
EXTT13=
EXTT14=
EXTT15=
PLAYORDER=
